# xmcd CD database file
#
# Track frame offsets:
#	150
#	21831
#	40025
#	73037
#
# Disc length: 4440 seconds
#
# Revision: 0
# Processed by: cddbd v1.5.1PL0 Copyright (c) Steve Scherf et al.
# Submitted via: CDex 1.51
#
DISCID=2c115604
DTITLE=椿 - あなたがいるだけで
DYEAR=2004
DGENRE=JPop
TTITLE0=あなたがいるだけで
TTITLE1=Can you hear my voice
TTITLE2=あなたがいるだけで 〜Original Instrumental〜
TTITLE3=CCCD
EXTD=YEAR: 2004
EXTT0=
EXTT1=
EXTT2=
EXTT3=
PLAYORDER=
